<svg width="24" height="24" viewBox="0 0 24 24" fill="none" xmlns="http://www.w3.org/2000/svg">
<path d="M15.6259 21.6167C15.8962 21.8647 16.2253 22 16.6014 22C17.3888 22 18 21.4138 18 20.6697C18 20.2976 17.8472 19.9594 17.5769 19.7001L9.34966 11.9887L17.5769 4.29989C17.8472 4.04059 18 3.69109 18 3.33033C18 2.58625 17.3888 2 16.6014 2C16.2253 2 15.8962 2.13529 15.6376 2.38331L6.49363 10.9515C6.16454 11.2446 6 11.6054 6 12C6 12.3946 6.16454 12.7328 6.48188 13.0372L15.6259 21.6167Z" fill="black"/>
</svg>
