<svg width="25" height="24" viewBox="0 0 25 24" fill="none" xmlns="http://www.w3.org/2000/svg">
<path d="M3.125 11.9127C3.125 9.99127 3.125 9.03056 3.53174 8.19893C3.93848 7.36729 4.69681 6.77748 6.21347 5.59785L7.21348 4.82007C9.57287 2.98499 10.7526 2.06745 12.125 2.06745C13.4974 2.06745 14.6771 2.98499 17.0365 4.82008L18.0365 5.59785C19.5532 6.77748 20.3115 7.36729 20.7183 8.19893C21.125 9.03056 21.125 9.99127 21.125 11.9127V14C21.125 17.7712 21.125 19.6569 19.9534 20.8284C18.7819 22 16.8962 22 13.125 22H11.125C7.35376 22 5.46815 22 4.29657 20.8284C3.125 19.6569 3.125 17.7712 3.125 14V11.9127Z" stroke="#1F2023" stroke-width="1.5" stroke-miterlimit="10"/>
<path d="M9.125 17C9.125 16.0681 9.125 15.6022 9.27724 15.2346C9.48023 14.7446 9.86958 14.3552 10.3596 14.1522C10.7272 14 11.1931 14 12.125 14V14C13.0569 14 13.5228 14 13.8904 14.1522C14.3804 14.3552 14.7698 14.7446 14.9728 15.2346C15.125 15.6022 15.125 16.0681 15.125 17V22H9.125V17Z" stroke="#1F2023" stroke-width="1.5" stroke-miterlimit="10"/>
</svg>
