<svg width="18" height="24" viewBox="0 0 18 24" fill="none" xmlns="http://www.w3.org/2000/svg">
<path d="M2.18659 2.7052C1.03557 2.7052 0.0917969 3.64897 0.0917969 4.79999V21.9052C0.0917969 23.0562 1.03557 24 2.18659 24H15.0637C16.2147 24 17.1585 23.0562 17.1585 21.9052V4.79999C17.1585 3.64897 16.2147 2.7052 15.0637 2.7052H14.4918C14.3503 2.7052 14.2147 2.76139 14.1147 2.86141C14.0147 2.96143 13.9585 3.09708 13.9585 3.23853C13.9585 3.37998 14.0147 3.51564 14.1147 3.61566C14.2147 3.71568 14.3503 3.77187 14.4918 3.77187H15.0637C15.6422 3.77187 16.0918 4.22145 16.0918 4.79999V21.9052C16.0918 22.4837 15.6422 22.9333 15.0637 22.9333H2.18659C1.60805 22.9333 1.15846 22.4837 1.15846 21.9052V4.79999C1.15846 4.22145 1.60805 3.77187 2.18659 3.77187H2.75846C2.89991 3.77187 3.03557 3.71568 3.13559 3.61566C3.23561 3.51564 3.2918 3.37998 3.2918 3.23853C3.2918 3.09708 3.23561 2.96143 3.13559 2.86141C3.03557 2.76139 2.89991 2.7052 2.75846 2.7052H2.18659Z" fill="black"/>
<path d="M6.65521 1.6H5.15833C4.86379 1.60003 4.62503 1.8388 4.625 2.13333V4.26667C4.62503 4.56121 4.86379 4.79997 5.15833 4.8H8.59479H8.65521H12.0917C12.3862 4.79997 12.625 4.56121 12.625 4.26667V2.13333C12.625 1.8388 12.3862 1.60003 12.0917 1.6H10.5948C10.3918 0.695888 9.61771 0 8.625 0C7.63229 0 6.85821 0.695888 6.65521 1.6ZM8.625 1.06667C9.1961 1.06667 9.61563 1.4862 9.61563 2.02708C9.61563 2.4672 9.77768 2.66667 10.149 2.66667H11.5583V3.73333H8.65521H8.59479H5.69167V2.66667H7.10104C7.60099 2.66667 7.63438 2.3522 7.63438 2.02708C7.63438 1.4862 8.05391 1.06667 8.625 1.06667Z" fill="black"/>
<path d="M6.1052 7.63222L4.92708 8.86972L4.1677 8.23117C3.94214 8.04204 3.606 8.07141 3.41666 8.2968C3.22753 8.52236 3.2569 8.8585 3.48229 9.04784L4.625 10.0083C4.84067 10.1893 5.15994 10.1715 5.35416 9.96762L6.87812 8.36762C7.08125 8.15421 7.07285 7.81652 6.85937 7.61347C6.62614 7.41311 6.33093 7.40641 6.1052 7.63222Z" fill="black"/>
<path d="M8.62513 8.53333C8.48368 8.53333 8.34803 8.58952 8.24801 8.68953C8.14799 8.78955 8.0918 8.92521 8.0918 9.06666C8.0918 9.20811 8.14799 9.34376 8.24801 9.44378C8.34803 9.5438 8.48368 9.59999 8.62513 9.59999H13.9585C14.0999 9.59999 14.2356 9.5438 14.3356 9.44378C14.4356 9.34376 14.4918 9.20811 14.4918 9.06666C14.4918 8.92521 14.4356 8.78955 14.3356 8.68953C14.2356 8.58952 14.0999 8.53333 13.9585 8.53333H8.62513Z" fill="black"/>
<path d="M6.1052 11.899L4.92708 13.1365L4.1677 12.4979C3.94214 12.3088 3.606 12.3382 3.41666 12.5636C3.22753 12.7891 3.2569 13.1253 3.48229 13.3146L4.625 14.275C4.84067 14.4561 5.15994 14.4383 5.35416 14.2344L6.87812 12.6344C7.08125 12.421 7.07285 12.0833 6.85937 11.8802C6.61153 11.6654 6.32238 11.6861 6.1052 11.899Z" fill="black"/>
<path d="M8.62513 12.8C8.48368 12.8 8.34803 12.8562 8.24801 12.9563C8.14799 13.0563 8.0918 13.1919 8.0918 13.3334C8.0918 13.4748 8.14799 13.6105 8.24801 13.7105C8.34803 13.8105 8.48368 13.8667 8.62513 13.8667H13.9585C14.0999 13.8667 14.2356 13.8105 14.3356 13.7105C14.4356 13.6105 14.4918 13.4748 14.4918 13.3334C14.4918 13.1919 14.4356 13.0563 14.3356 12.9563C14.2356 12.8562 14.0999 12.8 13.9585 12.8H8.62513Z" fill="black"/>
<path d="M6.1052 16.1656L4.92708 17.4031L4.1677 16.7646C3.94214 16.5754 3.606 16.6048 3.41666 16.8302C3.22753 17.0557 3.2569 17.3919 3.48229 17.5812L4.625 18.5416C4.84067 18.7227 5.15994 18.7049 5.35416 18.501L6.87812 16.901C7.08125 16.6876 7.07285 16.3499 6.85937 16.1469C6.62361 15.9278 6.31 15.9608 6.1052 16.1656Z" fill="black"/>
<path d="M8.62513 17.0667C8.48368 17.0667 8.34803 17.1228 8.24801 17.2229C8.14799 17.3229 8.0918 17.4585 8.0918 17.6C8.0918 17.7414 8.14799 17.8771 8.24801 17.9771C8.34803 18.0771 8.48368 18.1333 8.62513 18.1333H13.9585C14.0999 18.1333 14.2356 18.0771 14.3356 17.9771C14.4356 17.8771 14.4918 17.7414 14.4918 17.6C14.4918 17.4585 14.4356 17.3229 14.3356 17.2229C14.2356 17.1228 14.0999 17.0667 13.9585 17.0667H8.62513Z" fill="black"/>
</svg>
