<svg width="25" height="24" viewBox="0 0 25 24" fill="none" xmlns="http://www.w3.org/2000/svg">
<path d="M12.8748 22.0005C15.4748 22.0005 17.8348 21.0105 19.6148 19.3805C19.5148 18.4405 18.9148 17.5205 17.8448 16.8005C15.1248 14.9805 10.6448 14.9805 7.90477 16.8005C6.83477 17.5205 6.23477 18.4405 6.13477 19.3805C7.91477 21.0105 10.2748 22.0005 12.8748 22.0005ZM12.8748 22.0005C18.3976 22.0005 22.875 17.5228 22.875 12C22.875 6.47715 18.3978 2 12.875 2C7.35215 2 2.875 6.47715 2.875 12C2.875 17.5228 7.35192 22.0005 12.8748 22.0005ZM12.9947 12.7805C12.9247 12.7705 12.8347 12.7705 12.7547 12.7805C10.9947 12.7205 9.59473 11.2805 9.59473 9.51047C9.59473 7.70047 11.0547 6.23047 12.8747 6.23047C14.6847 6.23047 16.1547 7.70047 16.1547 9.51047C16.1447 11.2805 14.7547 12.7205 12.9947 12.7805Z" stroke="#1F2023" stroke-width="1.5" stroke-linecap="round" stroke-linejoin="round"/>
</svg>
